<svg id="Layer_1" data-name="Layer 1" xmlns="http://www.w3.org/2000/svg" viewBox="0 0 50 30"><title>Icons</title><path d="M8.25,8h2.92l6.18,14.51H14l-1.32-3.23H6.62L5.31,22.54H2.07Zm3.33,8.48L9.67,11.83,7.76,16.51h3.83Z"/><path d="M20,8.13h6.69A5.2,5.2,0,0,1,30.44,9.4a3.3,3.3,0,0,1,1,2.45v0A3.35,3.35,0,0,1,29.54,15c1.67,0.64,2.7,1.61,2.7,3.54v0c0,2.63-2.14,4-5.39,4H20V8.13ZM26,14c1.4,0,2.29-.45,2.29-1.52v0c0-.95-0.74-1.48-2.08-1.48H23.08v3H26Zm0.84,5.81c1.4,0,2.24-.49,2.24-1.56v0c0-1-.72-1.56-2.35-1.56H23.08v3.17h3.77Z"/><path d="M34.63,15.37v0a7.32,7.32,0,0,1,7.51-7.45,7.43,7.43,0,0,1,5.68,2.22l-2,2.33a5.32,5.32,0,0,0-3.68-1.63,4.27,4.27,0,0,0-4.18,4.49v0a4.28,4.28,0,0,0,4.18,4.53,5.2,5.2,0,0,0,3.79-1.69l2,2A7.37,7.37,0,0,1,42,22.79,7.27,7.27,0,0,1,34.63,15.37Z"/></svg>